<svg t="1571042683935" class="icon" viewBox="0 0 1024 1024" version="1.1" xmlns="http://www.w3.org/2000/svg" p-id="8129" width="200" height="200"><path d="M0 512c0 282.768 229.232 512 512 512s512-229.232 512-512-229.232-512-512-512-512 229.232-512 512z" fill="#EDEEF5" p-id="8130"></path><path d="M512 1024c186.408 0 349.504-99.648 439.048-248.552l-0.032-0.712c-25.824-39.296-203.232-98.808-272.84-98.808-138.096 241.408-324.488 41.544-321.12 2.248-96.448-6.632-212.68 63.024-277.184 108.288C170.736 929.216 330.248 1024 512 1024z" fill="#586ABA" p-id="8131"></path><path d="M359.264 689.08c21.288 55.136 190.848 210.712 318.912-13.152 1.016 0 2.128 0.056 3.184 0.08-24.08-22.832-42.64-60.784-35.496-129.744-64.312 100.656-186.76 106.624-249.68 2.632 4.584 30.384 2.336 78.12-36.92 140.184z" fill="#EDE7E6" p-id="8132"></path><path d="M392.848 554.104c5.688 20.208 152.688 157.472 285.896 123.792-38.984-48-25.176-122.944-22.744-167.576 13.8-30.32-259.096 16.84-263.152 43.784z" fill="#E3DCDB" p-id="8133"></path><path d="M687.488 391.384c-0.824 45.4-8.952 84.488-22.168 116.984 73.792-21.08 91.2-187.024 22.168-116.984z" fill="#EFE7E6" p-id="8134"></path><path d="M649.688 282.944C504.56 315.504 444.704 249.256 415.056 229.048c-47.432 37.896-35.576 125.472-50.824 141.472a101.384 101.384 0 0 1-7.192-10.32c-13.264 361.296 333.744 336.824 330.528 19.144-31.32-48.008-25.712-49.104-37.88-96.4z" fill="#F7EDEB" p-id="8135"></path><path d="M415.056 229.056C444.704 249.264 504.56 315.512 649.688 282.952c12.424 48.28 6.208 48.28 39.808 99.368 24.56 8.424 95.72-233.264-112.664-266.104-243.944-37.896-275.28 176.84-212.6 254.312 15.248-16 3.392-103.584 50.824-141.472z" fill="#586ABA" p-id="8136"></path></svg>