<svg t="1571043525557" class="icon" viewBox="0 0 1024 1024" version="1.1" xmlns="http://www.w3.org/2000/svg" p-id="8303" width="200" height="200"><path d="M513 1000.8c-65.9 0-129.8-12.9-190-38.4-58.1-24.6-110.3-59.8-155.1-104.6s-80-97-104.6-155.1C37.9 642.6 25 578.7 25 512.8S37.9 383 63.4 322.8C88 264.7 123.2 212.5 168 167.7s97-80 155.1-104.6c60.2-25.5 124.1-38.4 190-38.4s129.8 12.9 190 38.4c58.1 24.6 110.3 59.8 155.1 104.6s80 97 104.6 155.1c25.5 60.2 38.4 124.1 38.4 190s-12.9 129.8-38.4 190c-24.6 58.1-59.8 110.3-104.6 155.1s-97 80-155.1 104.6c-60.3 25.4-124.2 38.3-190.1 38.3z m0-946c-252.5 0-458 205.5-458 458s205.5 458 458 458 458-205.5 458-458-205.5-458-458-458z" fill="#8a8a8a" p-id="8304"></path><path d="M514.3 206.2c12.7 0 24.9 2.5 36.6 7.6 11.7 5.1 21.8 12.1 30.2 21s15.1 19.2 20.2 30.9 7.6 24.2 7.6 37.4c0 19.3-5 36.6-14.9 51.9s-22.8 27-38.5 35.1c-5.6 15.8-8.4 32.1-8.4 48.9 0 18.8 3.4 37.5 10.3 56.1s16.3 35.4 28.2 50.4c12 15 26 27.2 42 36.6 16 9.4 33.2 14.1 51.5 14.1 15.8 0 30.7-3.8 44.7-11.4 14-7.6 26.7-17.4 38.2-29.4s21.1-25.4 29-40.5c7.9-15 13.6-29.9 17.2-44.7-13.7-6.6-24.9-16.5-33.6-29.8-8.7-13.2-13-28-13-44.3 0-11.2 2-21.6 6.1-31.3s9.7-18.1 16.8-25.2 15.5-12.8 25.2-17.2c9.7-4.3 19.8-6.5 30.5-6.5s20.9 2.2 30.5 6.5c9.7 4.3 18.1 10 25.2 17.2 7.1 7.1 12.7 15.5 16.8 25.2s6.1 20.1 6.1 31.3c0 16.3-4.2 30.9-12.6 43.9-8.4 13-19.2 22.8-32.4 29.4-2.5 25.4-6.4 51.4-11.5 77.9s-11.5 52.8-19.1 79-16.5 51.5-26.7 76c-10.2 24.4-21.4 46.8-33.6 67.2-42.2 15.8-86 27.9-131.3 36.3-45.3 8.4-91.9 12.6-139.7 12.6s-94.3-4.2-139.3-12.6c-45-8.4-88.9-20.5-131.7-36.3-12.2-20.4-23.4-42.7-33.6-67.2-10.2-24.4-19.1-49.7-26.7-76-7.6-26.2-14.1-52.5-19.5-79-5.3-26.5-9-52.4-11.1-77.9-13.2-6.6-23.8-16.4-31.7-29.4s-11.8-27.6-11.8-43.9c0-11.2 2-21.6 6.1-31.3s9.5-18.1 16.4-25.2c6.9-7.1 15-12.8 24.4-17.2 9.4-4.3 19.5-6.5 30.2-6.5s20.9 2.2 30.5 6.5c9.7 4.3 18.1 10 25.2 17.2 7.1 7.1 12.7 15.5 16.8 25.2s6.1 20.1 6.1 31.3c0 16.8-4.3 31.8-13 45s-19.8 22.9-33.6 29c3.6 15.3 9.3 30.4 17.2 45.4 7.9 15 17.6 28.6 29 40.8 11.5 12.2 24.2 22.1 38.2 29.8 14 7.6 28.9 11.5 44.7 11.5 18.3 0 35.5-4.7 51.5-14.1 16-9.4 30.2-21.6 42.4-36.6s21.8-31.9 28.6-50.8c6.9-18.8 10.3-37.7 10.3-56.5 0-17.8-3.6-35.1-10.7-51.9-14.2-8.7-25.8-20.5-34.7-35.5-8.9-15-13.4-31.4-13.4-49.2 0-13.2 2.5-25.7 7.6-37.4s12-22 20.6-30.9c8.7-8.9 18.7-15.9 30.2-21 11.6-5 24-7.5 37.2-7.5z" p-id="8305" fill="#8a8a8a"></path></svg>