<svg t="1571732311183" class="icon" viewBox="0 0 1054 1024" version="1.1" xmlns="http://www.w3.org/2000/svg" p-id="3088" width="200" height="200"><path d="M333.504187 559.29526a27.086566 27.086566 0 0 0-2.750979 8.041324l-26.028497 148.129657a24.970428 24.970428 0 0 0 7.829711 25.182041 23.277517 23.277517 0 0 0 20.10331 8.041324 7.406483 7.406483 0 0 1 5.925186 2.116138l158.287119-34.069821a31.530455 31.530455 0 0 0 21.161379-14.812965L1040.082648 180.506567a38.725324 38.725324 0 0 0 0-56.077656l-114.271449-114.271449A47.613104 47.613104 0 0 0 897.878178 0a39.57178 39.57178 0 0 0-28.144634 12.061986L344.719718 535.171287a39.57178 39.57178 0 0 0-11.215531 24.123973zM380.905677 626.800061l42.322759 43.380827-52.903448 11.215532 10.580689-54.596359z m516.972501-558.660419l84.645518 84.645518-57.347338 56.712497-83.375835-84.645518z m-98.188801 98.612028l83.375836 84.645518L486.712575 649.231123l-84.645518-84.645518z m0 0" fill="#bfbfbf" p-id="3089"></path><path d="M1024 463.010983A30.895614 30.895614 0 0 0 994.585683 493.060142v420.688224a48.671173 48.671173 0 0 1-48.036332 48.036332H108.135496a48.671173 48.671173 0 0 1-48.036332-48.036332V148.129656a48.671173 48.671173 0 0 1 48.036332-47.824717H569.241955a30.895614 30.895614 0 0 0 30.049159-30.049159A30.895614 30.895614 0 0 0 569.241955 40.206621H108.135496A107.711422 107.711422 0 0 0 0.000846 148.129656v767.734848a107.711422 107.711422 0 0 0 108.13465 108.13465h835.87449a112.155311 112.155311 0 0 0 110.250787-108.13465v-423.227589a30.895614 30.895614 0 0 0-30.049159-30.049159z m0 0" fill="#bfbfbf" p-id="3090"></path></svg>